<svg width="20" height="20" viewBox="0 0 20 20" fill="none" xmlns="http://www.w3.org/2000/svg">
<path fill-rule="evenodd" clip-rule="evenodd" d="M20 10C20 15.523 15.523 20 10 20C4.477 20 0 15.523 0 10C0 4.477 4.477 0 10 0C15.523 0 20 4.477 20 10ZM10 18C12.1217 18 14.1566 17.1571 15.6569 15.6569C17.1571 14.1566 18 12.1217 18 10C18 7.87827 17.1571 5.84344 15.6569 4.34315C14.1566 2.84285 12.1217 2 10 2C7.87827 2 5.84344 2.84285 4.34315 4.34315C2.84285 5.84344 2 7.87827 2 10C2 12.1217 2.84285 14.1566 4.34315 15.6569C5.84344 17.1571 7.87827 18 10 18Z" fill="white"/>
<path fill-rule="evenodd" clip-rule="evenodd" d="M9.99832 12C9.73311 12 9.47875 11.8946 9.29121 11.7071C9.10368 11.5196 8.99832 11.2652 8.99832 11V6C8.99832 5.73478 9.10368 5.48043 9.29121 5.29289C9.47875 5.10536 9.73311 5 9.99832 5C10.2635 5 10.5179 5.10536 10.7054 5.29289C10.893 5.48043 10.9983 5.73478 10.9983 6V11C10.9983 11.2652 10.893 11.5196 10.7054 11.7071C10.5179 11.8946 10.2635 12 9.99832 12Z" fill="white"/>
<path d="M8.99832 13.9998C8.99832 13.7345 9.10368 13.4802 9.29121 13.2926C9.47875 13.1051 9.73311 12.9998 9.99832 12.9998C10.2635 12.9998 10.5179 13.1051 10.7054 13.2926C10.893 13.4802 10.9983 13.7345 10.9983 13.9998C10.9983 14.265 10.893 14.5193 10.7054 14.7069C10.5179 14.8944 10.2635 14.9998 9.99832 14.9998C9.73311 14.9998 9.47875 14.8944 9.29121 14.7069C9.10368 14.5193 8.99832 14.265 8.99832 13.9998Z" fill="white"/>
</svg>
