<svg width="22" height="22" viewBox="0 0 22 22" fill="none" xmlns="http://www.w3.org/2000/svg">
<path d="M1 11H2.11111M11 1V2.11111M19.8889 11H21M3.88889 3.88889L4.66667 4.66667M18.1111 3.88889L17.3333 4.66667M8.44444 16.5556H13.5556M7.66667 15.4444C6.73386 14.7448 6.04481 13.7695 5.69715 12.6565C5.34948 11.5435 5.36081 10.3494 5.72954 9.24318C6.09826 8.137 6.80569 7.17488 7.75161 6.4931C8.69753 5.81132 9.83399 5.44444 11 5.44444C12.166 5.44444 13.3025 5.81132 14.2484 6.4931C15.1943 7.17488 15.9017 8.137 16.2705 9.24318C16.6392 10.3494 16.6505 11.5435 16.3029 12.6565C15.9552 13.7695 15.2661 14.7448 14.3333 15.4444C13.8995 15.8739 13.5729 16.3994 13.3799 16.9785C13.1868 17.5576 13.1328 18.174 13.2222 18.7778C13.2222 19.3671 12.9881 19.9324 12.5713 20.3491C12.1546 20.7659 11.5894 21 11 21C10.4106 21 9.8454 20.7659 9.42865 20.3491C9.0119 19.9324 8.77778 19.3671 8.77778 18.7778C8.86717 18.174 8.81317 17.5576 8.62014 16.9785C8.42711 16.3994 8.10048 15.8739 7.66667 15.4444Z" stroke="white" stroke-width="2" stroke-linecap="round" stroke-linejoin="round"/>
</svg>
