<svg width="20" height="20" viewBox="0 0 20 20" fill="none" xmlns="http://www.w3.org/2000/svg">
<path d="M11 9.6V6C11 5.71667 10.904 5.47933 10.712 5.288C10.52 5.09667 10.2827 5.00067 10 5C9.71733 4.99933 9.48 5.09533 9.288 5.288C9.096 5.48067 9 5.718 9 6V9.975C9 10.1083 9.025 10.2377 9.075 10.363C9.125 10.4883 9.2 10.6007 9.3 10.7L12.6 14C12.7833 14.1833 13.0167 14.275 13.3 14.275C13.5833 14.275 13.8167 14.1833 14 14C14.1833 13.8167 14.275 13.5833 14.275 13.3C14.275 13.0167 14.1833 12.7833 14 12.6L11 9.6ZM10 20C8.61667 20 7.31667 19.7373 6.1 19.212C4.88334 18.6867 3.825 17.9743 2.925 17.075C2.025 16.1757 1.31267 15.1173 0.788001 13.9C0.263335 12.6827 0.000667932 11.3827 1.26582e-06 10C-0.000665401 8.61733 0.262001 7.31733 0.788001 6.1C1.314 4.88267 2.02633 3.82433 2.925 2.925C3.82367 2.02567 4.882 1.31333 6.1 0.788C7.318 0.262667 8.618 0 10 0C11.382 0 12.682 0.262667 13.9 0.788C15.118 1.31333 16.1763 2.02567 17.075 2.925C17.9737 3.82433 18.6863 4.88267 19.213 6.1C19.7397 7.31733 20.002 8.61733 20 10C19.998 11.3827 19.7353 12.6827 19.212 13.9C18.6887 15.1173 17.9763 16.1757 17.075 17.075C16.1737 17.9743 15.1153 18.687 13.9 19.213C12.6847 19.739 11.3847 20.0013 10 20Z" fill="white"/>
</svg>
