<svg width="23" height="20" viewBox="0 0 23 20" fill="none" xmlns="http://www.w3.org/2000/svg">
<path d="M5.11111 13.1662H17.8889C18.0712 13.1662 18.2232 13.1064 18.3451 12.9869C18.4669 12.8673 18.5278 12.7181 18.5278 12.5392C18.5278 12.3603 18.4669 12.2111 18.3451 12.0916C18.2232 11.972 18.0712 11.9123 17.8889 11.9123H5.11111C4.92967 11.9123 4.77761 11.972 4.65494 12.0916C4.53228 12.2111 4.47137 12.3603 4.47222 12.5392C4.47307 12.7181 4.53398 12.8673 4.65494 12.9869C4.77591 13.1064 4.92796 13.1662 5.11111 13.1662ZM5.11111 9.40441H17.8889C18.0712 9.40441 18.2232 9.34464 18.3451 9.2251C18.4669 9.10556 18.5278 8.95635 18.5278 8.77745C18.5278 8.59856 18.4669 8.44934 18.3451 8.3298C18.2232 8.21026 18.0712 8.15049 17.8889 8.15049H5.11111C4.92967 8.15049 4.77761 8.21026 4.65494 8.3298C4.53228 8.44934 4.47137 8.59856 4.47222 8.77745C4.47307 8.95635 4.53398 9.10556 4.65494 9.2251C4.77591 9.34464 4.92796 9.40441 5.11111 9.40441ZM5.11111 5.64265H17.8889C18.0712 5.64265 18.2232 5.58288 18.3451 5.46334C18.4669 5.3438 18.5278 5.19458 18.5278 5.01569C18.5278 4.8368 18.4669 4.68758 18.3451 4.56804C18.2232 4.4485 18.0712 4.38873 17.8889 4.38873H5.11111C4.92967 4.38873 4.77761 4.4485 4.65494 4.56804C4.53228 4.68758 4.47137 4.8368 4.47222 5.01569C4.47307 5.19458 4.53398 5.3438 4.65494 5.46334C4.77591 5.58288 4.92796 5.64265 5.11111 5.64265ZM2.06489 17.5549C1.47626 17.5549 0.985167 17.3618 0.591611 16.9756C0.198056 16.5894 0.000851852 16.1075 0 15.5298V2.02509C0 1.44828 0.197204 0.966358 0.591611 0.579314C0.986019 0.19227 1.47668 -0.000833245 2.06361 2.70242e-06H20.9364C21.5242 2.70242e-06 22.0148 0.193106 22.4084 0.579314C22.8019 0.965522 22.9991 1.44745 23 2.02509V18.9756C23 19.427 22.7883 19.7384 22.3649 19.9098C21.9416 20.0811 21.5685 20.0084 21.2456 19.6916L19.0683 17.5549H2.06489ZM19.6139 16.301L21.7222 18.3624V2.02634C21.7222 1.83324 21.6404 1.65601 21.4769 1.49468C21.3133 1.33334 21.1332 1.25309 20.9364 1.25392H2.06361C1.86768 1.25392 1.68752 1.33417 1.52311 1.49468C1.3587 1.65518 1.27693 1.83198 1.27778 2.02509V15.5298C1.27778 15.7221 1.35956 15.8989 1.52311 16.0602C1.68667 16.2216 1.86683 16.3018 2.06361 16.301H19.6139Z" fill="white"/>
</svg>
