<svg width="17" height="20" viewBox="0 0 17 20" fill="none" xmlns="http://www.w3.org/2000/svg">
<mask id="path-1-inside-1_739_1052" fill="white">
<path fill-rule="evenodd" clip-rule="evenodd" d="M2.14249 0.205653L16.3302 8.81835C16.5349 8.94244 16.7039 9.1162 16.8212 9.32307C16.9384 9.52993 17 9.76299 17 10C17 10.237 16.9384 10.4701 16.8212 10.6769C16.7039 10.8838 16.5349 11.0576 16.3302 11.1816L2.14249 19.7943C1.92944 19.9237 1.68528 19.9945 1.4352 19.9997C1.18511 20.0049 0.938159 19.9441 0.719823 19.8237C0.501486 19.7032 0.319671 19.5275 0.193136 19.3147C0.0666012 19.1018 -7.0424e-05 18.8595 5.58211e-08 18.6127V1.3873C-7.0424e-05 1.14053 0.0666012 0.898204 0.193136 0.685333C0.319671 0.472463 0.501486 0.296754 0.719823 0.176335C0.938159 0.0559163 1.18511 -0.00485114 1.4352 0.000302562C1.68528 0.00545627 1.92944 0.0763445 2.14249 0.205653ZM1.687 1.88381V18.1176L15.0565 10L1.687 1.88381Z"/>
</mask>
<path fill-rule="evenodd" clip-rule="evenodd" d="M2.14249 0.205653L16.3302 8.81835C16.5349 8.94244 16.7039 9.1162 16.8212 9.32307C16.9384 9.52993 17 9.76299 17 10C17 10.237 16.9384 10.4701 16.8212 10.6769C16.7039 10.8838 16.5349 11.0576 16.3302 11.1816L2.14249 19.7943C1.92944 19.9237 1.68528 19.9945 1.4352 19.9997C1.18511 20.0049 0.938159 19.9441 0.719823 19.8237C0.501486 19.7032 0.319671 19.5275 0.193136 19.3147C0.0666012 19.1018 -7.0424e-05 18.8595 5.58211e-08 18.6127V1.3873C-7.0424e-05 1.14053 0.0666012 0.898204 0.193136 0.685333C0.319671 0.472463 0.501486 0.296754 0.719823 0.176335C0.938159 0.0559163 1.18511 -0.00485114 1.4352 0.000302562C1.68528 0.00545627 1.92944 0.0763445 2.14249 0.205653ZM1.687 1.88381V18.1176L15.0565 10L1.687 1.88381Z" fill="white"/>
<path d="M2.14249 0.205653L3.69926 -2.35881L3.69905 -2.35894L2.14249 0.205653ZM16.3302 8.81835L14.7734 11.3828L14.775 11.3838L16.3302 8.81835ZM16.3302 11.1816L14.775 8.61622L14.7734 8.61718L16.3302 11.1816ZM2.14249 19.7943L3.69905 22.3589L3.69926 22.3588L2.14249 19.7943ZM5.58211e-08 18.6127L3 18.6136V18.6127H5.58211e-08ZM5.58211e-08 1.3873L3 1.3873L3 1.38644L5.58211e-08 1.3873ZM1.687 1.88381L3.2438 -0.680636L-1.313 -3.44692V1.88381H1.687ZM1.687 18.1176H-1.313V23.4488L3.24399 20.6819L1.687 18.1176ZM15.0565 10L16.6135 12.5643L20.8372 9.99978L16.6133 7.43555L15.0565 10ZM2.14249 0.205653L0.585723 2.77012L14.7734 11.3828L16.3302 8.81835L17.8869 6.25389L3.69926 -2.35881L2.14249 0.205653ZM16.3302 8.81835L14.775 11.3838C14.5441 11.2438 14.3488 11.0449 14.2113 10.8025L16.8212 9.32307L19.431 7.84366C19.0591 7.18748 18.5256 6.64105 17.8854 6.25293L16.3302 8.81835ZM16.8212 9.32307L14.2113 10.8025C14.0737 10.5598 14 10.2833 14 10H17H20C20 9.24265 19.8031 8.5001 19.431 7.84366L16.8212 9.32307ZM17 10H14C14 9.71667 14.0737 9.44024 14.2113 9.19752L16.8212 10.6769L19.431 12.1563C19.8031 11.4999 20 10.7574 20 10H17ZM16.8212 10.6769L14.2113 9.19752C14.3488 8.95506 14.5441 8.75617 14.775 8.61622L16.3302 11.1816L17.8854 13.7471C18.5256 13.3589 19.0591 12.8125 19.431 12.1563L16.8212 10.6769ZM16.3302 11.1816L14.7734 8.61718L0.585723 17.2299L2.14249 19.7943L3.69926 22.3588L17.8869 13.7461L16.3302 11.1816ZM2.14249 19.7943L0.58593 17.2298C0.825945 17.0841 1.09769 17.006 1.37338 17.0003L1.4352 19.9997L1.49701 22.9991C2.27287 22.9831 3.03294 22.7632 3.69905 22.3589L2.14249 19.7943ZM1.4352 19.9997L1.37338 17.0003C1.64906 16.9947 1.92341 17.0615 2.16866 17.1967L0.719823 19.8237L-0.729016 22.4506C-0.0470919 22.8267 0.721155 23.015 1.49701 22.9991L1.4352 19.9997ZM0.719823 19.8237L2.16866 17.1967C2.41419 17.3321 2.62385 17.5326 2.77194 17.7818L0.193136 19.3147L-2.38567 20.8476C-1.98451 21.5224 -1.41122 22.0744 -0.729016 22.4506L0.719823 19.8237ZM0.193136 19.3147L2.77194 17.7818C2.92022 18.0312 3.00008 18.3185 3 18.6136L5.58211e-08 18.6127L-3 18.6118C-3.00023 19.4004 -2.78702 20.1724 -2.38567 20.8476L0.193136 19.3147ZM5.58211e-08 18.6127H3V1.3873H5.58211e-08H-3V18.6127H5.58211e-08ZM5.58211e-08 1.3873L3 1.38644C3.00008 1.6815 2.92022 1.96878 2.77194 2.21823L0.193136 0.685333L-2.38567 -0.847561C-2.78702 -0.172368 -3.00023 0.599551 -3 1.38816L5.58211e-08 1.3873ZM0.193136 0.685333L2.77194 2.21823C2.62385 2.46736 2.41419 2.66787 2.16866 2.80329L0.719823 0.176335L-0.729016 -2.45062C-1.41121 -2.07436 -1.98451 -1.52244 -2.38567 -0.847561L0.193136 0.685333ZM0.719823 0.176335L2.16866 2.80329C1.92341 2.93855 1.64906 3.00535 1.37338 2.99967L1.4352 0.000302562L1.49701 -2.99906C0.721155 -3.01505 -0.0470919 -2.82672 -0.729016 -2.45062L0.719823 0.176335ZM1.4352 0.000302562L1.37338 2.99967C1.09769 2.99398 0.825945 2.91592 0.58593 2.77024L2.14249 0.205653L3.69905 -2.35894C3.03294 -2.76323 2.27287 -2.98307 1.49701 -2.99906L1.4352 0.000302562ZM1.687 1.88381H-1.313V18.1176H1.687H4.687V1.88381H1.687ZM1.687 18.1176L3.24399 20.6819L16.6135 12.5643L15.0565 10L13.4995 7.43567L0.130013 15.5532L1.687 18.1176ZM15.0565 10L16.6133 7.43555L3.2438 -0.680636L1.687 1.88381L0.130208 4.44826L13.4997 12.5644L15.0565 10Z" fill="white" mask="url(#path-1-inside-1_739_1052)"/>
</svg>
