<svg width="18" height="20" viewBox="0 0 18 20" fill="none" xmlns="http://www.w3.org/2000/svg">
<path d="M15.1828 19.9999H0V2H10.8449L15.1828 5.99998V19.9999Z" fill="black" fill-opacity="0.4"/>
<path d="M17.3575 17.9999H2.17468V0H13.0196L17.3575 3.99998V17.9999Z" fill="#FEFFFF"/>
<path d="M12.9803 0.0996094L17.2577 4.04297V17.9004H2.27429V0.0996094H12.9803Z" stroke="black" stroke-opacity="0.4" stroke-width="0.2"/>
<path d="M16.5356 4.49999H12.4688V0.75L16.5356 4.49999Z" fill="black" fill-opacity="0.4"/>
<path d="M8.951 12.1501C8.951 9.80013 10.9031 9.95013 10.9031 8.55014C10.9031 8.20014 10.7946 7.50014 9.81859 7.50014C8.7341 7.50014 8.67988 8.30014 8.67988 8.50014H7.21582C7.21582 8.15014 7.37849 6.40015 9.81859 6.40015C12.3129 6.40015 12.3671 8.20014 12.3671 8.55014C12.3671 10.3001 10.3066 10.5501 10.3066 12.2001H8.951V12.1501ZM8.84255 13.9001C8.84255 13.8001 8.84255 13.1501 9.65592 13.1501C10.4151 13.1501 10.4693 13.8001 10.4693 13.9001C10.4693 14.1001 10.3608 14.6001 9.65592 14.6001C8.951 14.6001 8.84255 14.1001 8.84255 13.9001Z" fill="black" fill-opacity="0.6"/>
</svg>
