<svg width="21" height="20" viewBox="0 0 21 20" fill="none" xmlns="http://www.w3.org/2000/svg">
<path d="M10.5 0C4.78558 0 0 4.064 0 9.2C0 11.624 1.09765 13.7984 2.82692 15.4248C2.61667 15.9691 2.31821 16.4757 1.94331 16.9248C1.44641 17.5218 0.897491 18.0743 0.302885 18.576C0.172455 18.6796 0.0777191 18.8208 0.0317496 18.9801C-0.0142199 19.1393 -0.00915622 19.3088 0.0462418 19.465C0.10164 19.6213 0.204641 19.7567 0.341031 19.8525C0.477421 19.9483 0.640475 19.9999 0.807692 20C2.59673 20 3.88338 19.98 5.04808 19.6752C6.09 19.4016 6.98573 18.8288 7.90004 18.0248C8.73196 18.2224 9.59054 18.4 10.5 18.4C16.2144 18.4 21 14.336 21 9.2C21 4.064 16.2144 0 10.5 0ZM10.5 1.6C15.4471 1.6 19.3846 5.056 19.3846 9.2C19.3846 13.344 15.4471 16.8 10.5 16.8C9.62042 16.8 8.70692 16.6496 7.875 16.4248C7.74196 16.3917 7.6026 16.3926 7.47005 16.4276C7.3375 16.4626 7.21613 16.5305 7.11738 16.6248C6.20873 17.488 5.53915 17.8904 4.64423 18.1248C4.23231 18.2328 3.43754 18.2072 2.877 18.2504C2.99008 18.124 3.09588 18.0568 3.20573 17.9248C3.84058 17.1568 4.41969 16.3448 4.59415 15.4248C4.61819 15.2867 4.60517 15.1448 4.55641 15.0132C4.50765 14.8817 4.42485 14.7651 4.31631 14.6752C2.62419 13.2912 1.61538 11.3512 1.61538 9.2C1.61538 5.056 5.55288 1.6 10.5 1.6ZM8.96054 4.7248C8.81837 4.7564 8.68747 4.82551 8.58173 4.9248L7.37019 6.0504L8.45573 7.2248L9.41446 6.3248H11.3578L12.1154 7.176V8.3512L10.0453 9.7256C9.93462 9.80023 9.84443 9.90094 9.78282 10.0187C9.72121 10.1364 9.69011 10.2674 9.69231 10.4V12H11.3077V10.8496L13.3778 9.4752C13.4886 9.40049 13.5788 9.29966 13.6405 9.18179C13.7021 9.06392 13.7331 8.93271 13.7308 8.8V6.8752C13.7297 6.68185 13.658 6.49542 13.5288 6.3504L12.3173 5C12.2419 4.91408 12.1489 4.84509 12.0444 4.79763C11.94 4.75017 11.8265 4.72534 11.7115 4.7248H9.13662C9.0781 4.71844 9.01906 4.71844 8.96054 4.7248ZM9.69231 12.8V14.4H11.3077V12.8H9.69231Z" fill="white"/>
</svg>
