<svg width="18" height="22" viewBox="0 0 18 22" fill="none" xmlns="http://www.w3.org/2000/svg">
<path d="M5.57143 5.44444H12.4286M5.57143 9.88889H12.4286M5.57143 14.3333H10.1429M1 3.22222C1 2.63285 1.24082 2.06762 1.66947 1.65087C2.09812 1.23413 2.67951 1 3.28571 1H14.7143C15.3205 1 15.9019 1.23413 16.3305 1.65087C16.7592 2.06762 17 2.63285 17 3.22222V18.7778C17 19.3671 16.7592 19.9324 16.3305 20.3491C15.9019 20.7659 15.3205 21 14.7143 21H3.28571C2.67951 21 2.09812 20.7659 1.66947 20.3491C1.24082 19.9324 1 19.3671 1 18.7778V3.22222Z" stroke="white" stroke-width="2" stroke-linecap="round" stroke-linejoin="round"/>
</svg>
