<svg width="17" height="20" viewBox="0 0 17 20" fill="none" xmlns="http://www.w3.org/2000/svg">
<path d="M16.456 15.4414L11.3338 8.33929V1.42857H12.7505V0H4.25019V1.42857H5.66691V8.33929L0.54475 15.4414C0.235786 15.8696 0.0503219 16.3756 0.00887854 16.9035C-0.0325648 17.4314 0.0716286 17.9605 0.30993 18.4324C0.548231 18.9042 0.911349 19.3004 1.3591 19.5771C1.80686 19.8538 2.32179 20.0001 2.84692 20H14.1531C14.6782 20.0001 15.1931 19.8538 15.6409 19.5771C16.0887 19.3004 16.4518 18.9042 16.6901 18.4324C16.9284 17.9605 17.0326 17.4314 16.9911 16.9035C16.9497 16.3756 16.7649 15.8696 16.456 15.4414ZM7.08363 8.80357V1.42857H9.91708V8.80357L11.8105 11.4286H5.19018L7.08363 8.80357ZM14.1538 18.5714H2.84763C2.58397 18.5711 2.32552 18.4974 2.1008 18.3584C1.87608 18.2193 1.69382 18.0203 1.57416 17.7834C1.45449 17.5465 1.40206 17.2809 1.42266 17.0159C1.44325 16.7508 1.53608 16.4966 1.69088 16.2814L4.16023 12.8571H12.8405L15.3105 16.2814C15.4653 16.4966 15.5582 16.7508 15.5788 17.0159C15.5994 17.2809 15.5469 17.5465 15.4273 17.7834C15.3076 18.0203 15.1253 18.2193 14.9006 18.3584C14.6759 18.4974 14.4174 18.5711 14.1538 18.5714Z" fill="white"/>
</svg>
