<svg width="46" height="41" viewBox="0 0 46 41" fill="none" xmlns="http://www.w3.org/2000/svg">
<path d="M17.4667 3.62624L27.6483 3.6369C27.7388 3.25987 27.8843 2.89443 28.0847 2.54057C28.6393 1.58294 29.5508 0.885127 30.6196 0.600002C31.6885 0.314876 32.8274 0.465688 33.7869 1.01939C34.3668 1.35741 34.8572 1.82987 35.2169 2.39697C35.5765 2.96406 35.7949 3.60915 35.8535 4.27785C35.9122 4.94656 35.8094 5.61928 35.5538 6.23929C35.2983 6.8593 34.8974 7.40844 34.3851 7.8404L39.4288 16.5764C40.0666 16.3471 40.7509 16.2769 41.4225 16.3721C42.094 16.4673 42.7326 16.7249 43.2828 17.1227C43.8331 17.5204 44.2784 18.0463 44.5802 18.6547C44.882 19.2632 45.0312 19.9358 45.0149 20.6144C44.9986 21.293 44.8172 21.957 44.4866 22.549C44.1559 23.1411 43.6859 23.6431 43.1172 24.0118C42.5486 24.3805 41.8984 24.6047 41.2231 24.6649C40.5479 24.7251 39.8678 24.6196 39.2418 24.3574L34.2495 33.0204C34.7988 33.4372 35.2368 33.9835 35.5245 34.6104C35.8122 35.2373 35.9406 35.9254 35.8983 36.6134C35.856 37.3015 35.6444 37.968 35.2821 38.5537C34.9199 39.1393 34.4184 39.6259 33.8223 39.9701C33.2516 40.3014 32.6101 40.4921 31.9507 40.5265C31.2913 40.5608 30.6329 40.4379 30.0297 40.1678C29.4265 39.8976 28.8957 39.488 28.4812 38.9727C28.0666 38.4573 27.7801 37.851 27.6452 37.2037L17.5333 37.1939C17.4455 37.6156 17.2898 38.0244 17.0663 38.4205C16.7711 38.9333 16.3703 39.3771 15.8905 39.7227C15.4106 40.0683 14.8627 40.3077 14.283 40.425C13.7033 40.5423 13.1051 40.5349 12.528 40.4032C11.9509 40.2715 11.4082 40.0186 10.9357 39.6612C10.4633 39.3038 10.0719 38.8501 9.78761 38.3302C9.50329 37.8103 9.3325 37.236 9.28658 36.6454C9.24065 36.0548 9.32063 35.4614 9.52121 34.9046C9.72179 34.3478 10.0384 33.8402 10.45 33.4156L5.31253 24.5172C4.69681 24.6725 4.05355 24.6852 3.43166 24.5543C2.80978 24.4233 2.22564 24.1522 1.72367 23.7615C1.2217 23.3708 0.815117 22.8708 0.534832 22.2996C0.254548 21.7284 0.107945 21.1009 0.106171 20.465C0.106373 19.8353 0.248606 19.214 0.52226 18.6475C0.795914 18.081 1.19392 17.5839 1.6866 17.1933C2.17928 16.8027 2.75391 16.5287 3.36762 16.3917C3.98133 16.2546 4.61829 16.2582 5.23097 16.402L10.3716 7.4758C9.93985 7.01662 9.61735 6.46574 9.42831 5.86447C9.23927 5.26319 9.18859 4.62713 9.28006 4.00398C9.37153 3.38082 9.60279 2.78676 9.95649 2.26632C10.3102 1.74589 10.7772 1.3126 11.3224 0.99894C11.8827 0.67391 12.5113 0.484295 13.1582 0.445154C13.8051 0.406014 14.4524 0.518426 15.0489 0.773464C15.6453 1.0285 16.1744 1.41914 16.5941 1.91435C17.0139 2.40956 17.3126 2.99571 17.4667 3.62624ZM17.4929 5.51636C17.4626 5.65082 17.4262 5.78367 17.3839 5.91492L37.7513 17.7008L37.8444 17.6038L32.7003 8.69404C32.1597 8.82695 31.5978 8.85 31.0478 8.76183C30.4978 8.67365 29.9708 8.47604 29.498 8.18067C29.0252 7.88529 28.6161 7.49815 28.2949 7.04212C27.9738 6.58609 27.7471 6.07041 27.6283 5.52557L17.4929 5.51636ZM12.1962 8.61555C12.1116 8.58961 12.0279 8.56068 11.9452 8.5288L6.92583 17.2421C7.39826 17.6301 7.78001 18.117 8.04412 18.6684C8.30822 19.2199 8.44823 19.8225 8.45424 20.4336C8.46026 21.0447 8.33214 21.6494 8.07893 22.205C7.82572 22.7606 7.45362 23.2535 6.9889 23.6489L12.0383 32.3947L12.219 32.3336L12.1962 8.61555ZM16.4107 7.53335C15.7854 8.1768 14.97 8.60203 14.0844 8.74652L14.103 32.2029C14.9497 32.3396 15.7346 32.7327 16.352 33.3293L36.8016 21.5227C36.6208 20.8077 36.6312 20.0579 36.8319 19.3488L16.4107 7.53335ZM32.7608 32.3016L37.8743 23.4257C37.8034 23.3544 37.7354 23.2803 37.6704 23.2035L17.378 34.9193C17.4221 35.0454 17.4606 35.1733 17.4936 35.3029L27.6877 35.3128C27.8239 34.7725 28.0672 34.2654 28.4032 33.8214C28.7392 33.3775 29.1611 33.0059 29.6437 32.7286C30.6272 32.1608 31.7436 32.0402 32.7624 32.3006" fill="white"/>
</svg>
