<svg width="27" height="20" viewBox="0 0 27 20" fill="none" xmlns="http://www.w3.org/2000/svg">
<path d="M26.3403 3.79708L10.5936 19.3474C10.3847 19.5542 10.1364 19.7184 9.86312 19.8304C9.58982 19.9424 9.29684 20 9.00095 20C8.70506 20 8.41207 19.9424 8.13878 19.8304C7.86548 19.7184 7.61724 19.5542 7.40828 19.3474L0.659704 12.683C0.450552 12.4764 0.284644 12.2312 0.171451 11.9613C0.0582594 11.6915 0 11.4022 0 11.1102C0 10.8181 0.0582594 10.5288 0.171451 10.259C0.284644 9.9891 0.450552 9.7439 0.659704 9.53735C1.0821 9.12022 1.655 8.88588 2.25237 8.88588C2.54815 8.88588 2.84104 8.94341 3.11431 9.05519C3.38758 9.16697 3.63588 9.33081 3.84503 9.53735L9.00095 14.6334L23.155 0.651476C23.5774 0.234343 24.1503 -1.52254e-08 24.7476 0C25.345 1.52254e-08 25.9179 0.234343 26.3403 0.651476C26.7627 1.06861 27 1.63436 27 2.22428C27 2.81419 26.7627 3.37994 26.3403 3.79708Z" fill="white"/>
</svg>
