<svg width="21" height="20" viewBox="0 0 21 20" fill="none" xmlns="http://www.w3.org/2000/svg">
<path d="M5 0L16 0L16 13L9 20L7.75 18.75C7.63333 18.6333 7.53733 18.475 7.462 18.275C7.38667 18.075 7.34933 17.8833 7.35 17.7V17.35L8.45 13L2 13C1.46667 13 1 12.8 0.6 12.4C0.2 12 0 11.5333 0 11V9C0 8.88333 0.0166659 8.75833 0.0499992 8.625C0.0833326 8.49167 0.116666 8.36667 0.15 8.25L3.15 1.2C3.3 0.866667 3.55 0.583334 3.9 0.35C4.25 0.116667 4.61667 0 5 0ZM14 2L5 2L2 9V11H11L9.65 16.5L14 12.15L14 2ZM16 13V11H19L19 2H16L16 0H21L21 13H16Z" fill="white"/>
</svg>
