<svg width="33" height="22" viewBox="0 0 33 22" fill="none" xmlns="http://www.w3.org/2000/svg">
<path d="M1 17.5217V4.47826C1 3.55577 1.3629 2.67106 2.00885 2.01876C2.65481 1.36646 3.53092 1 4.44444 1H19.0833C19.9969 1 20.873 1.36646 21.5189 2.01876C22.1649 2.67106 22.5278 3.55577 22.5278 4.47826V17.5217C22.5278 18.4442 22.1649 19.3289 21.5189 19.9812C20.873 20.6335 19.9969 21 19.0833 21H4.44444C3.53092 21 2.65481 20.6335 2.00885 19.9812C1.3629 19.3289 1 18.4442 1 17.5217ZM30.5671 2.2887L23.6782 8.48522C23.5874 8.56663 23.5147 8.66652 23.4649 8.77832C23.415 8.89011 23.3891 9.0113 23.3889 9.13391V12.2261C23.3891 12.3487 23.415 12.4699 23.4649 12.5817C23.5147 12.6935 23.5874 12.7934 23.6782 12.8748L30.5671 19.0713C30.6912 19.1826 30.8446 19.2553 31.0086 19.2807C31.1727 19.306 31.3405 19.2829 31.4919 19.2142C31.6433 19.1455 31.7718 19.034 31.862 18.8933C31.9521 18.7525 32 18.5885 32 18.4209V2.93913C32 2.77151 31.9521 2.60745 31.862 2.4667C31.7718 2.32595 31.6433 2.2145 31.4919 2.14578C31.3405 2.07706 31.1727 2.05398 31.0086 2.07934C30.8446 2.10469 30.6912 2.1774 30.5671 2.2887Z" stroke="white" stroke-width="2" stroke-linecap="round" stroke-linejoin="round"/>
</svg>
