<svg width="20" height="20" viewBox="0 0 20 20" fill="none" xmlns="http://www.w3.org/2000/svg">
<mask id="mask0_742_1093" style="mask-type:luminance" maskUnits="userSpaceOnUse" x="0" y="0" width="20" height="20">
<path d="M0 0H20V20H0V0Z" fill="white"/>
</mask>
<g mask="url(#mask0_742_1093)">
<path fill-rule="evenodd" clip-rule="evenodd" d="M6.325 12.4251C5.97371 12.0733 5.49711 11.8755 5 11.8751H2.5C2.33424 11.8751 2.17527 11.8092 2.05806 11.692C1.94085 11.5748 1.875 11.4158 1.875 11.2501V8.75008C1.875 8.58432 1.94085 8.42535 2.05806 8.30814C2.17527 8.19093 2.33424 8.12508 2.5 8.12508H5C5.49711 8.12464 5.97371 7.92681 6.325 7.57508L9.42875 4.47258C9.47567 4.42591 9.53536 4.39418 9.6003 4.38139C9.66523 4.36861 9.7325 4.37535 9.79361 4.40076C9.85471 4.42616 9.90693 4.4691 9.94366 4.52415C9.98039 4.5792 10 4.6439 10 4.71008V15.2901C10 15.3563 9.98039 15.421 9.94366 15.476C9.90693 15.5311 9.85471 15.574 9.79361 15.5994C9.7325 15.6248 9.66523 15.6315 9.6003 15.6188C9.53536 15.606 9.47567 15.5742 9.42875 15.5276L6.325 12.4251ZM2.5 6.25008H5L8.1025 3.14758C8.41157 2.83859 8.80532 2.62817 9.23396 2.54293C9.66261 2.45769 10.1069 2.50146 10.5107 2.66869C10.9144 2.83593 11.2596 3.11913 11.5024 3.48248C11.7453 3.84584 11.8749 4.27304 11.875 4.71008V15.2901C11.8749 15.7271 11.7453 16.1543 11.5024 16.5177C11.2596 16.881 10.9144 17.1642 10.5107 17.3315C10.1069 17.4987 9.66261 17.5425 9.23396 17.4572C8.80532 17.372 8.41157 17.1616 8.1025 16.8526L5 13.7501H2.5C1.83696 13.7501 1.20107 13.4867 0.732233 13.0178C0.263392 12.549 0 11.9131 0 11.2501V8.75008C0 8.08704 0.263392 7.45115 0.732233 6.98231C1.20107 6.51347 1.83696 6.25008 2.5 6.25008ZM17.7025 16.3788C17.3712 16.7776 16.7738 16.7738 16.4075 16.4088C16.0425 16.0426 16.0475 15.4513 16.3688 15.0463C17.509 13.6118 18.1282 11.8326 18.125 10.0001C18.1282 8.1676 17.509 6.38837 16.3688 4.95383C16.0475 4.54883 16.0425 3.95758 16.4075 3.59133C16.7738 3.22633 17.3712 3.22383 17.7025 3.62133C19.1905 5.41358 20.0035 7.67061 20 10.0001C20 12.4251 19.1375 14.6476 17.7025 16.3788ZM15.03 13.7101C14.7225 14.1263 14.1225 14.1226 13.7563 13.7563C13.39 13.3901 13.4012 12.8013 13.6812 12.3651C14.1344 11.6595 14.3752 10.8386 14.375 10.0001C14.375 9.12883 14.12 8.31633 13.6812 7.63508C13.4012 7.20008 13.39 6.61008 13.7563 6.24383C14.1225 5.87758 14.7225 5.87383 15.0312 6.29008C15.7962 7.32758 16.25 8.61258 16.25 10.0001C16.2518 11.3356 15.8241 12.6363 15.03 13.7101Z" fill="white"/>
</g>
</svg>
